<?xml version="1.0" encoding="UTF-8"?><!DOCTYPE svg PUBLIC "-//W3C//DTD SVG 1.1//EN" "http://www.w3.org/Graphics/SVG/1.1/DTD/svg11.dtd"><svg xmlns="http://www.w3.org/2000/svg"><symbol id="icon-arr-l" viewBox="0 0 438.533 438.533">
    <path d="M409.133 109.203c-19.608-33.592-46.205-60.189-79.798-79.796C295.736 9.801 259.058 0 219.273 0c-39.781 0-76.47 9.801-110.063 29.407-33.595 19.604-60.192 46.201-79.8 79.796C9.801 142.8 0 179.489 0 219.267c0 39.78 9.804 76.463 29.407 110.062 19.607 33.592 46.204 60.189 79.799 79.798 33.597 19.605 70.283 29.407 110.063 29.407s76.47-9.802 110.065-29.407c33.593-19.602 60.189-46.206 79.795-79.798 19.603-33.596 29.403-70.284 29.403-110.062.001-39.782-9.8-76.472-29.399-110.064zm-120.487 197.71c3.621 3.614 5.435 7.901 5.435 12.847 0 4.948-1.813 9.236-5.435 12.847l-29.126 29.13c-3.61 3.617-7.891 5.428-12.84 5.421-4.951 0-9.232-1.811-12.854-5.421L104.21 232.111c-3.617-3.62-5.424-7.898-5.424-12.848 0-4.949 1.807-9.233 5.424-12.847L233.826 76.795c3.621-3.615 7.902-5.424 12.854-5.424 4.949 0 9.229 1.809 12.84 5.424l29.126 29.13c3.621 3.615 5.435 7.898 5.435 12.847 0 4.946-1.813 9.233-5.435 12.845L201 219.267l87.646 87.646z"/>
</symbol><symbol id="icon-arr-r" viewBox="0 0 438.533 438.533">
    <path d="M409.133 109.203c-19.608-33.592-46.205-60.189-79.798-79.796C295.736 9.801 259.058 0 219.273 0c-39.781 0-76.47 9.801-110.063 29.407-33.595 19.604-60.192 46.201-79.8 79.796C9.801 142.8 0 179.489 0 219.267c0 39.78 9.804 76.463 29.407 110.062 19.607 33.592 46.204 60.189 79.799 79.798 33.597 19.605 70.283 29.407 110.063 29.407s76.47-9.802 110.065-29.407c33.593-19.602 60.189-46.206 79.795-79.798 19.603-33.596 29.403-70.284 29.403-110.062.001-39.782-9.8-76.472-29.399-110.064zm-74.801 122.908L204.71 361.736c-3.617 3.613-7.896 5.428-12.847 5.428-4.952 0-9.235-1.814-12.85-5.428l-29.121-29.13c-3.617-3.613-5.426-7.898-5.426-12.847 0-4.941 1.809-9.232 5.426-12.847l87.653-87.646-87.657-87.65c-3.617-3.612-5.426-7.898-5.426-12.845 0-4.949 1.809-9.231 5.426-12.847l29.121-29.13c3.619-3.615 7.898-5.424 12.85-5.424 4.95 0 9.233 1.809 12.85 5.424l129.622 129.621c3.613 3.614 5.42 7.898 5.42 12.847.001 4.951-1.806 9.236-5.419 12.849z"/>
</symbol><symbol id="icon-checked" viewBox="0 0 438.533 438.533">
    <path d="M409.133 109.203c-19.608-33.592-46.205-60.189-79.798-79.796C295.736 9.801 259.058 0 219.273 0c-39.781 0-76.47 9.801-110.063 29.407-33.595 19.604-60.192 46.201-79.8 79.796C9.801 142.8 0 179.489 0 219.267c0 39.78 9.804 76.463 29.407 110.062 19.607 33.592 46.204 60.189 79.799 79.798 33.597 19.605 70.283 29.407 110.063 29.407s76.47-9.802 110.065-29.407c33.593-19.602 60.189-46.206 79.795-79.798 19.603-33.596 29.403-70.284 29.403-110.062.001-39.782-9.8-76.472-29.399-110.064zm-47.688 76.66L206.42 340.889c-3.617 3.62-7.992 5.428-13.134 5.428-4.948 0-9.229-1.808-12.847-5.428L77.083 237.539c-3.422-3.429-5.137-7.703-5.137-12.847 0-5.328 1.709-9.709 5.137-13.136l25.981-25.693c3.621-3.616 7.898-5.424 12.85-5.424s9.235 1.809 12.85 5.424l64.525 64.523 116.485-116.199c3.617-3.617 7.898-5.426 12.847-5.426 4.945 0 9.233 1.809 12.847 5.426l25.981 25.697c3.432 3.424 5.14 7.801 5.14 13.129 0 5.141-1.708 9.424-5.144 12.85z"/>
</symbol><symbol id="icon-quotes_l" viewBox="0 0 508.044 508.044">
    <path d="M.108 352.536c0 66.794 54.144 120.938 120.937 120.938 66.794 0 120.938-54.144 120.938-120.938s-54.144-120.937-120.938-120.937c-13.727 0-26.867 2.393-39.168 6.61C109.093 82.118 230.814-18.543 117.979 64.303-7.138 156.17-.026 348.84.114 352.371c0 .055-.006.104-.006.165z"/>
    <path d="M266.169 352.536c0 66.794 54.144 120.938 120.938 120.938s120.938-54.144 120.938-120.938S453.9 231.599 387.106 231.599c-13.728 0-26.867 2.393-39.168 6.61C375.154 82.118 496.875-18.543 384.04 64.303 258.923 156.17 266.034 348.84 266.175 352.371c0 .055-.006.104-.006.165z"/>
</symbol></svg>