<?xml version="1.0" encoding="UTF-8"?>
<!-- Generator: Adobe Illustrator 18.1.1, SVG Export Plug-In . SVG Version: 6.00 Build 0)  -->
<svg version="1.1" id="Слой_1_xA0_Изображение_1_" xmlns="http://www.w3.org/2000/svg" xmlns:xlink="http://www.w3.org/1999/xlink" x="0px" y="0px" viewBox="0 0 142 35" enable-background="new 0 0 142 35" xml:space="preserve"><script xmlns="" type="text/javascript" charset="utf-8" id="zm-extension"/>
<path fill="#3EB4F0" d="M11.2,21.3l-8.8,0l-2.4,0l2.7-5C4,13.9,5.3,12.3,8,11.3c0.7-0.3,1.4-0.4,2.1-0.5l-0.5,3.6  c-1.3,0.3-2.3,1.2-3.1,2.3l-0.4,0.8l5.6,0c0.3-2.3,0.7-4.5,1-6.8c0.4-2.8,1.9-5.7,4.6-7.8c2.2-1.7,5.1-2.8,9-2.8h0l9.9,0h1.9  l-0.3,1.9c-0.4,2.8-1.9,5.7-4.6,7.8c-2.2,1.7-5.1,2.8-9,2.8h0h-0.8l-0.3,1.8h-3.9l0.5-3.3c0.5-1.7,1.6-2.3,3.9-2.3h1.1  c2.8,0,4.9-0.8,6.3-1.9c1.1-0.8,1.8-1.9,2.3-3l-7.7,0c-2.8,0-4.9,0.8-6.3,1.9c-1.6,1.2-2.3,2.8-2.5,4.5c-0.4,2.6-0.7,4.6-1.1,7.2  l7.7,0h0c3.8,0.1,6.4,1.2,8.1,2.8c2.1,2.1,2.7,5,2.2,7.8L33.5,30l-1.9,0l-9.9,0h0c-3.8-0.1-6.4-1.2-8.1-2.8  C11.9,25.6,11.2,23.5,11.2,21.3L11.2,21.3z M28.6,23.2c-1.1-1.1-2.9-1.9-5.7-1.9l-7.7,0c0.1,1.1,0.6,2.2,1.4,3  c1.1,1.1,2.9,1.9,5.7,1.9l7.7,0C29.8,25,29.4,24,28.6,23.2L28.6,23.2z"/>
<path fill="#3EB4F0" d="M110.9,12.9c-0.7,0-1.2,0.3-1.5,0.9l-3,5.1l-3.4-5.9h-4l5.3,8.3L99,29.8h4l3.4-5.9l3.5,5.9h4l-5.3-8.7  l5.3-8.3H110.9L110.9,12.9z M85.3,29.8h12.2v-3.1h-8.8v-4.4h4.8c1.2,0,1.8-0.6,1.8-1.7v-1.1h-6.6v-3.6h8.8v-2.9H87.1  c-1.2,0-1.7,0.6-1.7,1.8V29.8L85.3,29.8z M77.1,26.9c1.8,0,2.7-1.2,2.8-3.7c0-2.6-0.9-3.9-2.8-3.9c-1.9,0-2.8,1.3-2.8,3.9  C74.4,25.7,75.3,26.9,77.1,26.9L77.1,26.9z M74.1,33.4c0,1.1-0.5,1.6-1.6,1.6h-1.7V22.4c0.2-3.9,2.2-5.9,6.2-5.9  c4.1,0,6.1,2.2,6.1,6.6c0,4.5-1.7,6.8-5.3,6.9c-1.4,0-2.5-0.2-3.3-1.2c-0.1-0.2-0.4-0.2-0.4,0V33.4L74.1,33.4z M63.8,19.2  c1.4,0,2.1,0.4,2.1,1.1c0,0.7-0.7,1.1-2.1,1.3c-3.3,0.3-5.6,1.2-5.7,4.3c0,2.9,2.2,4.4,5.4,4.1c3.6-0.2,5.7-1.9,5.7-5.5v-4.5  c-0.1-2.4-1.9-3.6-5.5-3.6c-3,0-4.8,1.2-5.2,3.6h3.3C62,19.5,62.6,19.2,63.8,19.2L63.8,19.2z M63,27.4c-1,0-1.6-0.5-1.7-1.5  c0-1,0.7-1.6,2-1.8c1-0.2,1.9-0.5,2.6-0.8v1.2C66,26.3,64.8,27.4,63,27.4L63,27.4z M56.7,23.9h-3.4c-0.4,1.9-1.6,3.1-3.8,3.1  c-3.2,0-4.6-2.4-4.6-5.7c0-3.5,1.4-5.8,4.7-5.8c1.7,0,2.8,0.6,3.4,1.9c0.3,0.7,0.9,1,1.6,1h2.1c-0.2-1.9-0.9-3.4-2.1-4.4  c-1.3-1.1-3-1.6-5.1-1.6c-5.4,0-8.2,3.3-8.2,8.9c0,5.3,2.6,8.8,7.9,8.8C53.6,30.1,56.4,27.9,56.7,23.9L56.7,23.9z"/>
<path fill-rule="evenodd" clip-rule="evenodd" fill="#3D4D6F" d="M140.2,26.2h-1.3v2.3c0,0.9-0.7,1.6-1.6,1.6s-1.6-0.7-1.6-1.6v-2.3  c0,0-6.5,0-6.7,0c-0.1,0-2.1-0.1-2.1-1.8c0-0.3,0.1-0.6,0.1-0.7c1.7-1.2,3.5-2.8,4.1-5l4.4-5.3c0.6-0.7,1.5-0.6,1.8-0.6  c0.6,0,1.6,0.7,1.6,1.6v9.1h1.3c0.7,0,1.3,0.6,1.3,1.3S140.9,26.2,140.2,26.2z M135.5,17.8c0-0.2-0.1-0.3-0.3-0.1  c-0.7,0.9-3.5,4.2-4.4,5.3c-0.2,0.3,0,0.4,0.1,0.4c1,0,3.7,0,4.4,0c0.1,0,0.2-0.1,0.2-0.2C135.5,22.4,135.5,18.9,135.5,17.8z   M125.4,24c-1.8,1.4-3,2.4-3.1,2.6c-0.1,0.1,0.1,0.2,0.2,0.2h6.7c0.8,0,1.4,0.6,1.4,1.4s-0.6,1.4-1.4,1.4h-9.9c-0.4,0-1-0.2-1.3-0.5  c-0.3-0.3-0.7-0.8-0.5-1.7c0.4-1.3,2.1-2.7,4.1-4.4c2.2-1.9,5-3.1,5-5.5c0-1.4-1.4-2.3-2.6-2.3c-1.7,0-2.5,0.9-2.9,1.9  c-0.2,0.4-0.3,0.6-0.4,0.9c-0.3,0.6-0.8,1-1.5,1c-0.9,0-1.6-0.4-1.6-1.6c0-0.2,0-1.3,0.7-2.3c0.9-1.4,2.6-2.5,5.7-2.5  c3.3,0,6.3,1.4,6.3,4.9C130.2,21,127.2,22.7,125.4,24z"/>
</svg>